<svg id="visual" viewBox="0 0 960 540" width="960" height="540" xmlns="http://www.w3.org/2000/svg" xmlns:xlink="http://www.w3.org/1999/xlink" version="1.1"><path d="M0 114L13.3 109.5C26.7 105 53.3 96 80 97.8C106.7 99.7 133.3 112.3 160 121.3C186.7 130.3 213.3 135.7 240 158.2C266.7 180.7 293.3 220.3 320 211.3C346.7 202.3 373.3 144.7 400 118.7C426.7 92.7 453.3 98.3 480 101.2C506.7 104 533.3 104 560 99.5C586.7 95 613.3 86 640 101.2C666.7 116.3 693.3 155.7 720 172.7C746.7 189.7 773.3 184.3 800 190.7C826.7 197 853.3 215 880 214.2C906.7 213.3 933.3 193.7 946.7 183.8L960 174L960 0L946.7 0C933.3 0 906.7 0 880 0C853.3 0 826.7 0 800 0C773.3 0 746.7 0 720 0C693.3 0 666.7 0 640 0C613.3 0 586.7 0 560 0C533.3 0 506.7 0 480 0C453.3 0 426.7 0 400 0C373.3 0 346.7 0 320 0C293.3 0 266.7 0 240 0C213.3 0 186.7 0 160 0C133.3 0 106.7 0 80 0C53.3 0 26.7 0 13.3 0L0 0Z" fill="#6198ff"></path><path d="M0 141L13.3 145.5C26.7 150 53.3 159 80 161.8C106.7 164.7 133.3 161.3 160 171.3C186.7 181.3 213.3 204.7 240 235.2C266.7 265.7 293.3 303.3 320 290.7C346.7 278 373.3 215 400 183.5C426.7 152 453.3 152 480 162.8C506.7 173.7 533.3 195.3 560 192.7C586.7 190 613.3 163 640 167.5C666.7 172 693.3 208 720 225.2C746.7 242.3 773.3 240.7 800 256.8C826.7 273 853.3 307 880 311.5C906.7 316 933.3 291 946.7 278.5L960 266L960 172L946.7 181.8C933.3 191.7 906.7 211.3 880 212.2C853.3 213 826.7 195 800 188.7C773.3 182.3 746.7 187.7 720 170.7C693.3 153.7 666.7 114.3 640 99.2C613.3 84 586.7 93 560 97.5C533.3 102 506.7 102 480 99.2C453.3 96.3 426.7 90.7 400 116.7C373.3 142.7 346.7 200.3 320 209.3C293.3 218.3 266.7 178.7 240 156.2C213.3 133.7 186.7 128.3 160 119.3C133.3 110.3 106.7 97.7 80 95.8C53.3 94 26.7 103 13.3 107.5L0 112Z" fill="#4385ff"></path><path d="M0 287L13.3 288.8C26.7 290.7 53.3 294.3 80 308.8C106.7 323.3 133.3 348.7 160 355.8C186.7 363 213.3 352 240 359.2C266.7 366.3 293.3 391.7 320 395.3C346.7 399 373.3 381 400 367.5C426.7 354 453.3 345 480 342.3C506.7 339.7 533.3 343.3 560 339.7C586.7 336 613.3 325 640 319.5C666.7 314 693.3 314 720 321.2C746.7 328.3 773.3 342.7 800 353.5C826.7 364.3 853.3 371.7 880 385.2C906.7 398.7 933.3 418.3 946.7 428.2L960 438L960 264L946.7 276.5C933.3 289 906.7 314 880 309.5C853.3 305 826.7 271 800 254.8C773.3 238.7 746.7 240.3 720 223.2C693.3 206 666.7 170 640 165.5C613.3 161 586.7 188 560 190.7C533.3 193.3 506.7 171.7 480 160.8C453.3 150 426.7 150 400 181.5C373.3 213 346.7 276 320 288.7C293.3 301.3 266.7 263.7 240 233.2C213.3 202.7 186.7 179.3 160 169.3C133.3 159.3 106.7 162.7 80 159.8C53.3 157 26.7 148 13.3 143.5L0 139Z" fill="#2071ff"></path><path d="M0 347L13.3 353.2C26.7 359.3 53.3 371.7 80 378.8C106.7 386 133.3 388 160 386.3C186.7 384.7 213.3 379.3 240 386.5C266.7 393.7 293.3 413.3 320 423.2C346.7 433 373.3 433 400 424C426.7 415 453.3 397 480 392.5C506.7 388 533.3 397 560 400.7C586.7 404.3 613.3 402.7 640 400.8C666.7 399 693.3 397 720 399.7C746.7 402.3 773.3 409.7 800 419.7C826.7 429.7 853.3 442.3 880 455.8C906.7 469.3 933.3 483.7 946.7 490.8L960 498L960 436L946.7 426.2C933.3 416.3 906.7 396.7 880 383.2C853.3 369.7 826.7 362.3 800 351.5C773.3 340.7 746.7 326.3 720 319.2C693.3 312 666.7 312 640 317.5C613.3 323 586.7 334 560 337.7C533.3 341.3 506.7 337.7 480 340.3C453.3 343 426.7 352 400 365.5C373.3 379 346.7 397 320 393.3C293.3 389.7 266.7 364.3 240 357.2C213.3 350 186.7 361 160 353.8C133.3 346.7 106.7 321.3 80 306.8C53.3 292.3 26.7 288.7 13.3 286.8L0 285Z" fill="#0061f1"></path><path d="M0 428L13.3 433.3C26.7 438.7 53.3 449.3 80 450.2C106.7 451 133.3 442 160 433C186.7 424 213.3 415 240 423.2C266.7 431.3 293.3 456.7 320 467.5C346.7 478.3 373.3 474.7 400 462C426.7 449.3 453.3 427.7 480 421.3C506.7 415 533.3 424 560 437.5C586.7 451 613.3 469 640 466.3C666.7 463.7 693.3 440.3 720 442.2C746.7 444 773.3 471 800 481.8C826.7 492.7 853.3 487.3 880 490C906.7 492.7 933.3 503.3 946.7 508.7L960 514L960 496L946.7 488.8C933.3 481.7 906.7 467.3 880 453.8C853.3 440.3 826.7 427.7 800 417.7C773.3 407.7 746.7 400.3 720 397.7C693.3 395 666.7 397 640 398.8C613.3 400.7 586.7 402.3 560 398.7C533.3 395 506.7 386 480 390.5C453.3 395 426.7 413 400 422C373.3 431 346.7 431 320 421.2C293.3 411.3 266.7 391.7 240 384.5C213.3 377.3 186.7 382.7 160 384.3C133.3 386 106.7 384 80 376.8C53.3 369.7 26.7 357.3 13.3 351.2L0 345Z" fill="#0056d6"></path><path d="M0 541L13.3 541C26.7 541 53.3 541 80 541C106.7 541 133.3 541 160 541C186.7 541 213.3 541 240 541C266.7 541 293.3 541 320 541C346.7 541 373.3 541 400 541C426.7 541 453.3 541 480 541C506.7 541 533.3 541 560 541C586.7 541 613.3 541 640 541C666.7 541 693.3 541 720 541C746.7 541 773.3 541 800 541C826.7 541 853.3 541 880 541C906.7 541 933.3 541 946.7 541L960 541L960 512L946.7 506.7C933.3 501.3 906.7 490.7 880 488C853.3 485.3 826.7 490.7 800 479.8C773.3 469 746.7 442 720 440.2C693.3 438.3 666.7 461.7 640 464.3C613.3 467 586.7 449 560 435.5C533.3 422 506.7 413 480 419.3C453.3 425.7 426.7 447.3 400 460C373.3 472.7 346.7 476.3 320 465.5C293.3 454.7 266.7 429.3 240 421.2C213.3 413 186.7 422 160 431C133.3 440 106.7 449 80 448.2C53.3 447.3 26.7 436.7 13.3 431.3L0 426Z" fill="#004cbb"></path></svg>